# xmcd
#
# Track frame offsets:
#	150
#	16668
#	33847
#	47740
#	64930
#	82264
#	95068
#	109424
#	122859
#	140902
#	153639
#	170355
#	187765
#	205565
#	218972
#	232101
#	247887
#	264018
#	278419
#	292057
#
# Disc length: 4097 seconds
#
# Revision: 0
# Processed by: cddbd v1.5.2PL0 Copyright (c) Steve Scherf et al.
# Submitted via: audiograbber 1.83.01
#
DISCID=210fff14
DTITLE=Various Artist - Promo Only Country Radio August 2017
DYEAR=2017
DGENRE=Country
TTITLE0=Shania Twain - Life's About To Get Good
TTITLE1=Little Big Town - When Someone Stops Loving You
TTITLE2=Beyond The Sun - Cruisin Round Town
TTITLE3=Andy Ross - Playing In The Mud
TTITLE4=Aaron Lewis - Folded Flag
TTITLE5=Gretchen Wilson - Summertime Town
TTITLE6=Justin Dukes - Warning Sign
TTITLE7=The Cadillac Three - Dang If We Didn't (Promo Only Clean Edit)
TTITLE8=Sara Evans - Marquee Sign
TTITLE9=Shane Owens - 19
TTITLE10=RaeLynn - Lonely Call
TTITLE11=Brook Chivell - Hot Country Girl
TTITLE12=Kelsea Ballerini - Legends
TTITLE13=Sam Outlaw - Trouble
TTITLE14=Risa Binder - You Haul
TTITLE15=Kason Layne - Text With You
TTITLE16=Stolen Rhodes - Preacherman
TTITLE17=Jeremy Michael - Talk
TTITLE18=Jordan Davis - Singles You Up
TTITLE19=Brantley Gilbert - The Ones That Like Me
EXTD=
EXTT0=
EXTT1=
EXTT2=
EXTT3=
EXTT4=
EXTT5=
EXTT6=
EXTT7=
EXTT8=
EXTT9=
EXTT10=
EXTT11=
EXTT12=
EXTT13=
EXTT14=
EXTT15=
EXTT16=
EXTT17=
EXTT18=
EXTT19=
PLAYORDER=
